<svg id="Layer_1" data-name="Layer 1" xmlns="http://www.w3.org/2000/svg" viewBox="0 0 64 40.93"><title>insights grid cell</title><path d="M22,39H8V28H22ZM10,37H20V30H10Z"/><path d="M39,26H8V2H39ZM10,24H37V4H10Z"/><path d="M56,39H42V28H56ZM44,37H54V30H44Z"/><path d="M56,13H42V2H56ZM44,11H54V4H44Z"/><path d="M56,26H42V15H56ZM44,24H54V17H44Z"/><path d="M39,39H25V28H39ZM27,37H37V30H27Z"/><path d="M23.5,5.63a.35.35,0,0,0-.35.35V7.37a.35.35,0,1,0,.7,0V6a.35.35,0,0,0-.35-.35m-4.93,2a.36.36,0,0,0-.25.6l1,1a.35.35,0,0,0,.49-.49l-1-1a.32.32,0,0,0-.24-.11m9.86,0a.34.34,0,0,0-.24.11l-1,1a.35.35,0,0,0,.49.49l1-1a.36.36,0,0,0-.25-.6M23.5,8.77a4.12,4.12,0,0,0-4.19,4c0,3,2.27,3.67,2.27,5.79h3.84c0-2.12,2.27-2.76,2.27-5.79a4.12,4.12,0,0,0-4.19-4m-7,3.83a.35.35,0,0,0-.35.35.35.35,0,0,0,.35.35h1.4a.35.35,0,0,0,.35-.35.35.35,0,0,0-.35-.35h-1.4m12.56,0a.35.35,0,0,0-.35.35.35.35,0,0,0,.35.35h1.4a.35.35,0,0,0,.35-.35.35.35,0,0,0-.35-.35h-1.4m-7.5,6.63v.7h3.84v-.7H21.58m0,1.4a.7.7,0,0,0,.7.7h2.44a.7.7,0,0,0,.7-.7H21.58m1.22,1a.7.7,0,0,0,1.4,0H22.8"/></svg>
